<svg xmlns="http://www.w3.org/2000/svg" viewBox="0 0 1600 1000"><defs><linearGradient id="sky" x1="0" y1="0" x2="0" y2="1"><stop offset="0" stop-color="#0D1A2B"/><stop offset="0.55" stop-color="#1F3347"/><stop offset="1" stop-color="#C8813A"/></linearGradient><linearGradient id="water" x1="0" y1="0" x2="0" y2="1"><stop offset="0" stop-color="#C8813A" stop-opacity="0.7"/><stop offset="1" stop-color="#1F3347" stop-opacity="0.9"/></linearGradient><radialGradient id="glow" cx="50%" cy="38%" r="28%"><stop offset="0" stop-color="#C8A96A" stop-opacity="0.55"/><stop offset="1" stop-color="#C8A96A" stop-opacity="0"/></radialGradient></defs><rect width="1600" height="1000" fill="url(#sky)"/><ellipse cx="800" cy="385" rx="90" ry="90" fill="#F6C97A" opacity="0.18"/><circle cx="800" cy="385" r="44" fill="#F6D89A" opacity="0.82"/><rect x="0" y="580" width="1600" height="420" fill="url(#water)"/><path d="M0 580 Q200 560 400 578 Q600 596 800 574 Q1000 552 1200 570 Q1400 588 1600 574 L1600 1000 L0 1000Z" fill="#1A2E42" opacity="0.65"/><path d="M0 640 Q400 620 800 638 Q1200 656 1600 632 L1600 1000 L0 1000Z" fill="#122030" opacity="0.55"/><path d="M720 580 L720 880 Q760 890 740 880 L740 580Z" fill="#0D1217" opacity="0.82"/><ellipse cx="730" cy="565" rx="28" ry="34" fill="#1A1208" opacity="0.85"/><path d="M870 580 L870 880 Q910 890 890 880 L890 580Z" fill="#0D1217" opacity="0.78"/><ellipse cx="880" cy="560" rx="26" ry="32" fill="#1A1208" opacity="0.80"/><path d="M740 680 Q780 670 870 680" fill="none" stroke="#C8A96A" stroke-width="2" opacity="0.45"/><rect x="0" y="385" width="1600" height="4" fill="#C8A96A" opacity="0.12"/><path d="M0 390 L1600 390" stroke="#F6EFE3" stroke-width="1.5" opacity="0.08"/><text x="110" y="160" fill="#F6EFE3" font-family="serif" font-size="66" opacity="0.62" font-style="italic">together</text></svg>
